Coordinates
version=1
nRows=13
nColumns=40
inDegrees=yes

Units are S.I. units (second, meters, Newtons, ...)
Angles are in degrees.

endheader
time	pelvis_tilt	pelvis_list	pelvis_rotation	pelvis_tx	pelvis_ty	pelvis_tz	hip_flexion_r	hip_adduction_r	hip_rotation_r	knee_angle_r	knee_angle_r_beta	ankle_angle_r	subtalar_angle_r	mtp_angle_r	hip_flexion_l	hip_adduction_l	hip_rotation_l	knee_angle_l	knee_angle_l_beta	ankle_angle_l	subtalar_angle_l	mtp_angle_l	lumbar_extension	lumbar_bending	lumbar_rotation	arm_flex_r	arm_add_r	arm_rot_r	elbow_flex_r	pro_sup_r	wrist_flex_r	wrist_dev_r	arm_flex_l	arm_add_l	arm_rot_l	elbow_flex_l	pro_sup_l	wrist_flex_l	wrist_dev_l
     15.75000000	     -4.32128500	     29.85817210	     78.91558032	      0.58426194	      0.99399828	     -1.01423599	    -29.54302994	    -15.40379456	      3.26733280	     49.04690952	      0.85603006	     -2.18780928	      0.00000000	      0.00000000	    -12.27158704	      7.87962127	    -11.83316868	     16.32700986	      0.28496008	      8.14247988	      0.00000000	      0.00000000	    -42.06203205	    -10.82811746	      6.71055862	      3.09138437	     -9.28643819	      4.58582352	    134.44575324	     84.85273345	      0.00000000	      0.00000000	     -0.23597323	     -1.40073965	      1.67625669	    135.98967392	     84.09065098	      0.00000000	      0.00000000
     15.76000000	     -4.79045862	     30.85059184	     79.15546220	      0.58229543	      0.99673974	     -1.01636583	    -29.10171226	    -15.99191653	      3.39585397	     51.47604376	      0.89842645	     -6.41269539	      0.00000000	      0.00000000	    -14.84290637	      8.92868001	    -11.47291870	     15.09102357	      0.26338805	      8.43555575	      0.00000000	      0.00000000	    -42.77113055	    -11.12512988	      5.86508463	      2.91947681	     -8.71987461	      4.59208122	    134.50703479	     84.74547918	      0.00000000	      0.00000000	     -0.25213857	     -2.00833451	      1.56052861	    136.43923034	     83.89470373	      0.00000000	      0.00000000
     15.77000000	     -5.26276923	     31.35704784	     79.12966286	      0.58083747	      0.99883058	     -1.01780404	    -27.67737657	    -16.60065092	      3.85583205	     54.15391228	      0.94516407	     -9.93865197	      0.00000000	      0.00000000	    -16.81035262	      9.90414233	    -11.44772797	     13.87687584	      0.24219717	      8.36406399	      0.00000000	      0.00000000	    -43.05942748	    -11.53615324	      5.29455810	      2.80733559	     -8.20038852	      4.53027039	    134.56679246	     84.74698260	      0.00000000	      0.00000000	     -0.20692225	     -2.70371523	      1.53655446	    136.80228080	     83.77806720	      0.00000000	      0.00000000
     15.78000000	     -5.46214141	     31.12997212	     78.89988719	      0.57949061	      1.00013336	     -1.01791555	    -25.03422208	    -16.70033920	      4.82001443	     57.05824210	      0.99585419	    -12.11702824	      0.00000000	      0.00000000	    -17.70453447	     10.45223386	    -11.68186332	     13.13564356	      0.22926023	      8.73542999	      0.00000000	      0.00000000	    -42.79931877	    -11.70408160	      4.96946334	      2.88252140	     -7.79431657	      4.48128174	    134.55176912	     84.78338142	      0.00000000	      0.00000000	      0.00936973	     -3.36911033	      1.54086191	    137.03655135	     83.74713012	      0.00000000	      0.00000000
     15.79000000	     -5.32613713	     30.69524447	     78.57055814	      0.57841642	      1.00147195	     -1.01717419	    -22.21664471	    -16.17542785	      5.99969823	     59.66059385	      1.04127380	    -12.59032136	      0.00000000	      0.00000000	    -18.28584007	     10.62190453	    -11.82021051	     12.58541569	      0.21965694	      9.05782877	      0.00000000	      0.00000000	    -42.47386563	    -11.58089837	      4.79860757	      3.07391050	     -7.47211010	      4.44991941	    134.50489739	     84.85412199	      0.00000000	      0.00000000	      0.33087678	     -4.06202334	      1.58183522	    137.19003550	     83.72423890	      0.00000000	      0.00000000
     15.80000000	     -5.04418615	     30.36940053	     78.29771391	      0.57756126	      1.00321332	     -1.01633668	    -19.76036864	    -15.36740625	      6.95251485	     61.74908961	      1.07772492	    -11.51885490	      0.00000000	      0.00000000	    -19.08865789	     10.66088686	    -11.83756347	     11.90766132	      0.20782790	      9.32746134	      0.00000000	      0.00000000	    -42.29528706	    -11.30632273	      4.59594667	      3.28741563	     -7.19526046	      4.48712552	    134.42466136	     84.83062966	      0.00000000	      0.00000000	      0.66867866	     -4.83519874	      1.64646857	    137.31999087	     83.62557547	      0.00000000	      0.00000000
     15.81000000	     -4.60845380	     30.07210146	     78.13500333	      0.57668444	      1.00513733	     -1.01559354	    -17.56298572	    -14.32384452	      7.58489631	     63.39151834	      1.10639071	     -9.59693388	      0.00000000	      0.00000000	    -19.95853137	     10.51182791	    -11.74817700	     11.24825147	      0.19631902	      9.75828349	      0.00000000	      0.00000000	    -42.17912200	    -10.80773153	      4.37118624	      3.46393052	     -7.00566079	      4.48333231	    134.39468906	     84.80885216	      0.00000000	      0.00000000	      1.02181397	     -5.58383531	      1.76447412	    137.41260989	     83.52613509	      0.00000000	      0.00000000
     15.82000000	     -4.01353746	     29.78067657	     78.00914359	      0.57593242	      1.00718552	     -1.01472915	    -15.55023103	    -13.04258873	      8.06097448	     64.53240086	      1.12630287	     -8.23504630	      0.00000000	      0.00000000	    -20.84194562	     10.17171559	    -11.48336879	     10.63281666	      0.18557766	     10.05692551	      0.00000000	      0.00000000	    -42.11961628	    -10.14600841	      4.13802636	      3.66943104	     -6.85755853	      4.48554853	    134.36428692	     84.74092346	      0.00000000	      0.00000000	      1.35496987	     -6.35396715	      1.93988646	    137.54770105	     83.39961227	      0.00000000	      0.00000000
     15.83000000	     -3.43932657	     29.38816008	     77.75728400	      0.57526002	      1.00898710	     -1.01393468	    -13.43065686	    -11.81604821	      8.59964139	     65.38267738	      1.14114299	     -6.33884452	      0.00000000	      0.00000000	    -21.62595896	      9.87733416	    -11.51748509	      9.97244793	      0.17405205	     10.44395537	      0.00000000	      0.00000000	    -41.91277645	     -9.55789788	      4.04865085	      3.82329013	     -6.85855974	      4.47947617	    134.31897608	     84.83308386	      0.00000000	      0.00000000	      1.68265664	     -7.08903544	      2.15217885	    137.56578325	     83.35902430	      0.00000000	      0.00000000
     15.84000000	     -2.86932398	     28.99338461	     77.70355835	      0.57452042	      1.01083810	     -1.01329461	    -11.45304704	    -10.56782530	      8.83094776	     65.87098229	      1.14966552	     -3.91824331	      0.00000000	      0.00000000	    -22.43881089	      9.50877064	    -11.25402843	      9.31533299	      0.16258323	     10.52231756	      0.00000000	      0.00000000	    -41.73314172	     -8.86771719	      3.82330263	      3.89926039	     -6.89165389	      4.53024020	    134.30438434	     84.79830448	      0.00000000	      0.00000000	      1.96068481	     -7.90908791	      2.49401777	    137.66271934	     83.27211636	      0.00000000	      0.00000000
     15.85000000	     -2.26721662	     28.65635595	     77.40826704	      0.57407193	      1.01261882	     -1.01269457	     -9.56907837	     -9.37420539	      9.15767821	     66.01573640	      1.15219196	     -1.89853662	      0.00000000	      0.00000000	    -23.35198185	      9.18340775	    -11.47609116	      8.56291353	      0.14945103	     10.76161751	      0.00000000	      0.00000000	    -41.55965597	     -8.29916365	      3.82941433	      3.99231103	     -7.04739142	      4.49467450	    134.32654760	     85.01031922	      0.00000000	      0.00000000	      2.31427837	     -8.59682492	      2.79704256	    137.64120221	     83.24590173	      0.00000000	      0.00000000
     15.86000000	     -1.78234701	     28.15006674	     77.43438443	      0.57348962	      1.01419208	     -1.01204187	     -7.70100426	     -8.18083663	      9.18168290	     65.66541403	      1.14607768	     -1.00281267	      0.00000000	      0.00000000	    -24.06211026	      8.84036660	    -11.19726932	      7.78925426	      0.13594813	     10.98826580	      0.00000000	      0.00000000	    -41.27139074	     -7.64355399	      3.57926418	      4.06368021	     -7.13226464	      4.65136194	    134.26502355	     84.97385752	      0.00000000	      0.00000000	      2.56989472	     -9.39260378	      3.13111061	    137.74868184	     83.14416227	      0.00000000	      0.00000000
     15.87000000	     -1.27891867	     27.65989937	     77.38772534	      0.57305074	      1.01563676	     -1.01142986	     -5.94500910	     -6.98338391	      9.27417104	     65.05198803	      1.13537138	      0.44773888	      0.00000000	      0.00000000	    -24.87389629	      8.50972350	    -10.99617416	      6.90108511	      0.12044666	     11.13863710	      0.00000000	      0.00000000	    -40.99387615	     -7.01635069	      3.42875448	      4.10942046	     -7.29988544	      4.78205772	    134.23328754	     85.00512254	      0.00000000	      0.00000000	      2.83667368	    -10.10930825	      3.44600265	    137.79217251	     83.05639796	      0.00000000	      0.00000000
